<svg width="241" height="80" viewBox="0 0 241 80" fill="none" xmlns="http://www.w3.org/2000/svg">
<rect x="20" y="20" width="10" height="10" fill="#FFCF0D"/>
<rect x="20" y="40" width="10" height="10" fill="#FFCF0D"/>
<rect x="20" y="50" width="10" height="10" fill="#FFCF0D"/>
<rect x="30" y="50" width="10" height="10" fill="#FFCF0D"/>
<rect x="40" y="20" width="10" height="10" fill="#FFCF0D"/>
<rect x="50" y="20" width="10" height="10" fill="#FFCF0D"/>
<rect x="50" y="30" width="10" height="10" fill="#FFCF0D"/>
<rect x="50" y="50" width="10" height="10" fill="#FFCF0D"/>
<path d="M89.368 40.5213C90.808 41.0253 91.936 41.8173 92.752 42.8973C93.568 43.9533 93.976 45.2373 93.976 46.7493C93.976 48.9573 93.088 50.6613 91.312 51.8613C89.536 53.0613 86.968 53.6613 83.608 53.6613H70V28.4613H82.888C86.104 28.4613 88.552 29.0613 90.232 30.2613C91.912 31.4373 92.752 33.0333 92.752 35.0493C92.752 36.2493 92.452 37.3293 91.852 38.2893C91.276 39.2253 90.448 39.9693 89.368 40.5213ZM77.056 33.6093V38.4693H81.952C84.352 38.4693 85.552 37.6533 85.552 36.0213C85.552 34.4133 84.352 33.6093 81.952 33.6093H77.056ZM83.032 48.5133C85.528 48.5133 86.776 47.6613 86.776 45.9573C86.776 44.2533 85.528 43.4013 83.032 43.4013H77.056V48.5133H83.032Z" fill="#101416"/>
<path d="M117.144 34.1493V53.6613H110.628V51.5733C109.908 52.3653 109.044 52.9653 108.036 53.3733C107.028 53.7813 105.96 53.9853 104.832 53.9853C102.312 53.9853 100.296 53.2413 98.784 51.7533C97.296 50.2653 96.552 48.0333 96.552 45.0573V34.1493H103.392V43.9413C103.392 45.4053 103.668 46.4733 104.22 47.1453C104.772 47.8173 105.576 48.1533 106.632 48.1533C107.712 48.1533 108.588 47.7813 109.26 47.0373C109.956 46.2693 110.304 45.1053 110.304 43.5453V34.1493H117.144Z" fill="#101416"/>
<path d="M120.83 34.1493H127.67V53.6613H120.83V34.1493Z" fill="#101416"/>
<path d="M131.395 26.0147H138.235V53.6613H131.395V26.0147Z" fill="#101416"/>
<path d="M162.696 26.0147V53.6613H156.18V51.7173C154.908 53.2293 153 53.9853 150.456 53.9853C148.68 53.9853 147.06 53.5773 145.596 52.7613C144.132 51.9213 142.968 50.7333 142.104 49.1973C141.264 47.6613 140.844 45.8853 140.844 43.8693C140.844 41.8533 141.264 40.0893 142.104 38.5773C142.968 37.0413 144.132 35.8653 145.596 35.0493C147.06 34.2333 148.68 33.8253 150.456 33.8253C152.784 33.8253 154.584 34.4973 155.856 35.8413V26.0147H162.696ZM151.896 48.5493C153.072 48.5493 154.044 48.1413 154.812 47.3253C155.58 46.4853 155.964 45.3333 155.964 43.8693C155.964 42.4293 155.58 41.3013 154.812 40.4853C154.068 39.6693 153.096 39.2613 151.896 39.2613C150.696 39.2613 149.712 39.6693 148.944 40.4853C148.176 41.3013 147.792 42.4293 147.792 43.8693C147.792 45.3333 148.176 46.4853 148.944 47.3253C149.712 48.1413 150.696 48.5493 151.896 48.5493Z" fill="#101416"/>
<path d="M186.321 43.9413C186.321 43.9893 186.285 44.5533 186.213 45.6333H172.029C172.317 46.6413 172.869 47.4213 173.685 47.9733C174.525 48.5013 175.569 48.7653 176.817 48.7653C177.753 48.7653 178.557 48.6333 179.229 48.3693C179.925 48.1053 180.621 47.6733 181.317 47.0733L184.917 50.8173C183.021 52.9293 180.249 53.9853 176.601 53.9853C174.321 53.9853 172.317 53.5533 170.589 52.6893C168.861 51.8253 167.517 50.6253 166.557 49.0893C165.621 47.5533 165.153 45.8133 165.153 43.8693C165.153 41.9493 165.609 40.2333 166.521 38.7213C167.457 37.1853 168.741 35.9853 170.373 35.1213C172.005 34.2573 173.841 33.8253 175.881 33.8253C177.825 33.8253 179.589 34.2333 181.173 35.0493C182.757 35.8413 184.005 37.0053 184.917 38.5413C185.853 40.0533 186.321 41.8533 186.321 43.9413ZM175.917 38.6853C174.861 38.6853 173.973 38.9853 173.253 39.5853C172.557 40.1853 172.113 41.0013 171.921 42.0333H179.913C179.721 41.0013 179.265 40.1853 178.545 39.5853C177.849 38.9853 176.973 38.6853 175.917 38.6853Z" fill="#101416"/>
<path d="M195.27 36.4893C195.966 35.6013 196.866 34.9413 197.97 34.5093C199.098 34.0533 200.382 33.8253 201.822 33.8253V39.9813C201.198 39.9093 200.682 39.8733 200.274 39.8733C198.81 39.8733 197.658 40.2693 196.818 41.0613C196.002 41.8533 195.594 43.0653 195.594 44.6973V53.6613H188.754V34.1493H195.27V36.4893Z" fill="#101416"/>
<path d="M211.052 53.9853C209.42 53.9853 207.812 53.8053 206.228 53.4453C204.644 53.0613 203.372 52.5693 202.412 51.9693L204.464 47.2893C205.352 47.8413 206.408 48.2853 207.632 48.6213C208.856 48.9333 210.068 49.0893 211.268 49.0893C212.372 49.0893 213.152 48.9813 213.608 48.7653C214.088 48.5253 214.328 48.1893 214.328 47.7573C214.328 47.3253 214.04 47.0253 213.464 46.8573C212.912 46.6653 212.024 46.4853 210.8 46.3173C209.24 46.1253 207.908 45.8733 206.804 45.5613C205.724 45.2493 204.788 44.6733 203.996 43.8333C203.204 42.9933 202.808 41.8173 202.808 40.3053C202.808 39.0573 203.18 37.9533 203.924 36.9933C204.668 36.0093 205.748 35.2413 207.164 34.6893C208.604 34.1133 210.32 33.8253 212.312 33.8253C213.728 33.8253 215.132 33.9693 216.524 34.2573C217.916 34.5453 219.08 34.9533 220.016 35.4813L217.964 40.1253C216.236 39.1653 214.364 38.6853 212.348 38.6853C211.268 38.6853 210.476 38.8173 209.972 39.0813C209.468 39.3213 209.216 39.6453 209.216 40.0533C209.216 40.5093 209.492 40.8333 210.044 41.0253C210.596 41.1933 211.508 41.3733 212.78 41.5653C214.388 41.8053 215.72 42.0813 216.776 42.3933C217.832 42.7053 218.744 43.2813 219.512 44.1213C220.304 44.9373 220.7 46.0893 220.7 47.5773C220.7 48.8013 220.328 49.9053 219.584 50.8893C218.84 51.8493 217.736 52.6053 216.272 53.1573C214.832 53.7093 213.092 53.9853 211.052 53.9853Z" fill="#101416"/>
<path d="M120.83 26.0147H127.67V32.3482H120.83V26.0147Z" fill="#101416"/>
</svg>
